<svg width="19" height="19" viewBox="0 0 19 19" fill="none" xmlns="http://www.w3.org/2000/svg">
<path d="M9.65482 0.0555959C9.88016 0.14654 10.0901 0.26156 10.3002 0.377649C10.4389 0.45366 10.5803 0.525012 10.7217 0.596809C10.8005 0.637346 10.8005 0.637346 10.8809 0.678703C10.9866 0.733053 11.0925 0.787217 11.1984 0.841196C11.4841 0.986803 11.7673 1.13534 12.0482 1.28821C12.3001 1.42543 12.3001 1.42543 12.5615 1.54717C12.7374 1.62243 12.9026 1.71283 13.069 1.80353C13.4043 1.98623 13.7448 2.15931 14.0872 2.33099C14.3332 2.45483 14.5775 2.58142 14.8222 2.70728C14.8727 2.73313 14.9232 2.75898 14.9752 2.78561C15.5061 3.05739 16.0364 3.33017 16.5621 3.60989C16.5969 3.62838 16.6316 3.64687 16.6675 3.66591C16.7325 3.70054 16.7974 3.73526 16.8623 3.7701C17.0441 3.86694 17.2281 3.9553 17.4186 4.03761C17.5364 4.09231 17.6095 4.14015 17.6827 4.24028C17.7 4.38012 17.7 4.38012 17.6366 4.53031C17.5451 4.59135 17.5451 4.59135 17.4297 4.64975C17.3879 4.6712 17.3462 4.69265 17.3032 4.71476C17.2609 4.73593 17.2187 4.7571 17.1752 4.77891C17.1025 4.81643 17.0298 4.85398 16.9571 4.89155C16.8818 4.92999 16.8065 4.9684 16.7311 5.00679C16.2743 5.24033 15.8201 5.4778 15.3663 5.71599C15.0209 5.89726 14.6746 6.07715 14.3283 6.25694C14.1468 6.35115 13.9655 6.44548 13.7841 6.53979C13.7111 6.57777 13.638 6.61575 13.565 6.65373C13.5288 6.67253 13.4926 6.69133 13.4554 6.7107C13.1267 6.88161 13.1267 6.88161 13.0171 6.93855C12.9439 6.97663 12.8707 7.01471 12.7974 7.05279C12.6177 7.14624 12.438 7.23966 12.2582 7.333C11.8475 7.54621 11.4373 7.76 11.0274 7.97439C10.9805 7.99893 10.9336 8.02348 10.8852 8.04876C10.5868 8.20516 10.2896 8.36312 9.99513 8.52542C9.72737 8.67176 9.50372 8.72642 9.19344 8.67357C8.97165 8.58253 8.76651 8.47197 8.55894 8.3574C8.37834 8.2586 8.19448 8.16487 8.01117 8.07021C7.93642 8.03128 7.86169 7.99233 7.78697 7.95335C7.53321 7.82114 7.2785 7.69046 7.02361 7.56001C6.83848 7.4652 6.65348 7.37019 6.46845 7.27522C6.38477 7.23227 6.30108 7.18933 6.2174 7.14639C5.42639 6.74048 4.63539 6.33457 3.84439 5.92866C3.81716 5.91469 3.78994 5.90072 3.76189 5.88633C3.68437 5.84655 3.60686 5.80676 3.52935 5.76698C3.42894 5.71546 3.32849 5.664 3.22802 5.61258C3.0633 5.52822 2.89869 5.44369 2.7342 5.35896C2.69984 5.34126 2.66548 5.32357 2.63008 5.30533C2.44289 5.20879 2.25604 5.11179 2.06972 5.01391C1.93744 4.94442 1.80444 4.87665 1.66998 4.81063C1.61524 4.78281 1.56051 4.75497 1.5058 4.72712C1.45857 4.70383 1.41135 4.68054 1.3627 4.65655C1.25781 4.57174 1.25781 4.57174 1.21924 4.41702C1.21674 4.37237 1.21424 4.32772 1.21167 4.28172C1.48899 4.0837 1.78108 3.92161 2.08828 3.76381C2.18729 3.71246 2.28629 3.6611 2.38529 3.60973C2.43561 3.58372 2.48592 3.55771 2.53776 3.53091C2.77294 3.40911 3.0073 3.28604 3.24172 3.16304C3.33381 3.1148 3.4259 3.06657 3.518 3.01835C3.70442 2.9207 3.89076 2.82293 4.07706 2.72508C4.5518 2.47584 5.02746 2.22826 5.50534 1.9839C5.86227 1.80114 6.2172 1.61538 6.57189 1.42915C6.86179 1.27694 7.15222 1.12558 7.4431 0.974881C7.70216 0.840593 7.95975 0.704426 8.21591 0.565734C8.27166 0.535846 8.3274 0.505958 8.38315 0.476072C8.49573 0.415579 8.60689 0.35341 8.71765 0.290272C9.30826 -0.0406057 9.30826 -0.0406057 9.65482 0.0555959Z" fill="#a3a3a3" fill-opacity="1"/>
<path d="M0.22407 6.12933C0.439521 6.15241 0.588601 6.23445 0.773393 6.33261C0.810122 6.35155 0.846851 6.37049 0.884693 6.39C0.959242 6.42849 1.03365 6.4672 1.10791 6.50613C1.19786 6.55324 1.28813 6.59974 1.37877 6.64578C1.92661 6.92451 2.47119 7.20868 3.01394 7.49531C3.27961 7.6349 3.54906 7.76816 3.81843 7.90186C4.03709 8.01068 4.25292 8.12257 4.46637 8.23948C4.60385 8.31367 4.74307 8.38484 4.88251 8.45603C5.13263 8.58374 5.38138 8.71342 5.62936 8.84446C5.66282 8.86214 5.69628 8.87981 5.73076 8.89802C5.90832 8.99202 6.08495 9.08722 6.26086 9.18369C6.40137 9.25982 6.54313 9.32865 6.69052 9.39344C6.99468 9.52746 7.287 9.67919 7.57866 9.83366C7.61102 9.85064 7.64337 9.86762 7.6767 9.88511C7.77711 9.9381 7.87691 9.99193 7.9766 10.046C8.02331 10.0706 8.02331 10.0706 8.07097 10.0956C8.10037 10.1118 8.12977 10.128 8.16007 10.1447C8.18591 10.1587 8.21176 10.1726 8.2384 10.187C8.38423 10.3004 8.48615 10.4148 8.51877 10.5896C8.52661 10.7058 8.52815 10.821 8.5279 10.9375C8.52854 10.9831 8.52918 11.0287 8.52984 11.0757C8.5318 11.2314 8.53245 11.3871 8.53313 11.5428C8.53428 11.655 8.5355 11.7672 8.53681 11.8795C8.5397 12.1371 8.5419 12.3948 8.54381 12.6525C8.54737 13.1234 8.55289 13.5944 8.55846 14.0654C8.57054 15.0917 8.58254 16.118 8.59032 17.1444C8.59216 17.3695 8.59512 17.5947 8.59953 17.8198C8.6019 17.9457 8.6036 18.0717 8.60516 18.1976C8.60644 18.2805 8.60867 18.3634 8.61094 18.4463C8.61143 18.4946 8.61191 18.5429 8.61242 18.5927C8.61326 18.6339 8.61409 18.6751 8.61496 18.7176C8.5874 18.8561 8.53099 18.9046 8.40914 18.9903C8.15689 19.0323 7.98944 18.9314 7.7834 18.8142C7.71358 18.7759 7.64371 18.7376 7.5738 18.6994C7.53708 18.6792 7.50036 18.659 7.46253 18.6381C7.26699 18.532 7.06806 18.4312 6.8693 18.3299C6.55237 18.1679 6.23608 18.0048 5.9206 17.8405C5.5969 17.6719 5.27256 17.5045 4.94746 17.3381C4.76232 17.2433 4.57733 17.1483 4.3923 17.0533C4.30861 17.0103 4.22493 16.9674 4.14124 16.9245C3.97556 16.8394 3.80987 16.7544 3.64419 16.6694C3.60439 16.649 3.5646 16.6285 3.5236 16.6075C3.4432 16.5662 3.3628 16.525 3.2824 16.4837C3.07941 16.3795 2.8764 16.2754 2.67332 16.1714C2.24425 15.9515 1.8155 15.7312 1.38889 15.5075C1.21541 15.4168 1.04128 15.328 0.864227 15.243C0.189987 14.9179 0.189987 14.9179 0.012126 14.5984C0.00751036 14.489 0.0057146 14.3807 0.00595688 14.2713C0.00585236 14.2371 0.00574782 14.2029 0.00564013 14.1677C0.00534675 14.0525 0.00538594 13.9372 0.00542395 13.822C0.00528599 13.7397 0.00512902 13.6574 0.00495439 13.575C0.00454576 13.3509 0.00443864 13.1268 0.00440925 12.9027C0.00436553 12.7159 0.00419588 12.5291 0.00403219 12.3423C0.00365614 11.9019 0.00354389 11.4614 0.00357666 11.0209C0.0036044 10.5658 0.0031172 10.1107 0.00238892 9.65555C0.00178673 9.2654 0.00153807 8.87525 0.00156761 8.48509C0.00157941 8.25181 0.00144619 8.01852 0.00095962 7.78523C0.000514769 7.56595 0.000508062 7.34668 0.000845043 7.1274C0.000893519 7.04673 0.00078297 6.96605 0.000505451 6.88538C0.00015227 6.77564 0.000361564 6.66591 0.000719115 6.55617C0.000481805 6.5239 0.000244502 6.49164 0 6.45839C0.00215924 6.16055 0.00215924 6.16055 0.22407 6.12933Z" fill="#a3a3a3" fill-opacity="1"/>
<path d="M18.7901 6.0633C18.8881 6.12628 18.8881 6.12628 18.9747 6.22903C18.9928 6.34591 18.9996 6.44661 18.9981 6.56345C18.9984 6.59742 18.9987 6.63139 18.999 6.6664C18.9997 6.7804 18.9991 6.89437 18.9986 7.00838C18.9988 7.09005 18.9991 7.17172 18.9995 7.25338C19.0004 7.47536 19.0001 7.69732 18.9995 7.9193C18.999 8.15149 18.9994 8.38367 18.9997 8.61586C19.0001 9.00589 18.9996 9.39592 18.9987 9.78596C18.9977 10.2369 18.9981 10.6878 18.9991 11.1388C18.9999 11.5258 19 11.9128 18.9996 12.2998C18.9993 12.531 18.9992 12.7622 18.9998 12.9935C19.0004 13.2109 19 13.4283 18.9989 13.6458C18.9987 13.7256 18.9988 13.8054 18.9992 13.8852C18.9997 13.9942 18.999 14.1031 18.9981 14.212C18.9985 14.2436 18.9989 14.2752 18.9994 14.3077C18.9959 14.5207 18.9384 14.6408 18.7901 14.8056C18.704 14.8726 18.704 14.8726 18.6113 14.9247C18.575 14.9452 18.5387 14.9657 18.5012 14.9868C18.2735 15.1082 18.044 15.2264 17.8132 15.343C17.4566 15.5233 17.1018 15.7058 16.7514 15.8958C16.3791 16.0976 16.0027 16.2929 15.6259 16.488C15.4473 16.5804 15.2689 16.6731 15.0905 16.7658C15.0372 16.7936 15.0372 16.7936 14.9828 16.8218C14.6354 17.0025 14.2888 17.1842 13.9422 17.366C13.6506 17.5188 13.3586 17.6709 13.0662 17.8224C12.8151 17.9526 12.5649 18.0842 12.3165 18.2186C12.2897 18.233 12.263 18.2473 12.2355 18.2622C12.1025 18.3338 11.9698 18.4058 11.8377 18.4787C11.7016 18.5539 11.565 18.6284 11.4283 18.7028C11.3632 18.7392 11.3632 18.7392 11.2968 18.7763C11.2348 18.8099 11.2348 18.8099 11.1715 18.8441C11.1348 18.8643 11.0982 18.8845 11.0604 18.9053C10.9195 18.9593 10.8216 18.9651 10.6699 18.9488C10.5937 18.9048 10.5937 18.9048 10.5315 18.8245C10.5172 18.7198 10.5113 18.625 10.5116 18.5201C10.5111 18.4888 10.5106 18.4575 10.5102 18.4252C10.5088 18.3197 10.5083 18.2142 10.5079 18.1087C10.5071 18.0328 10.5063 17.9569 10.5054 17.881C10.5031 17.6736 10.5017 17.4661 10.5006 17.2587C10.4996 17.0848 10.4982 16.9109 10.4968 16.737C10.4939 16.3676 10.4915 15.9982 10.4896 15.6288C10.4871 15.123 10.483 14.6171 10.4777 14.1113C10.4735 13.6988 10.4704 13.2864 10.4681 12.8739C10.4667 12.6238 10.4648 12.3738 10.4618 12.1237C10.4591 11.8874 10.4577 11.6511 10.4573 11.4147C10.4569 11.3275 10.4561 11.2404 10.4547 11.1532C10.4529 11.0338 10.4529 10.9144 10.4532 10.7949C10.4523 10.7603 10.4514 10.7257 10.4504 10.69C10.4536 10.4618 10.5161 10.3459 10.692 10.1811C10.7827 10.107 10.8739 10.0481 10.9805 9.99357C11.0209 9.97255 11.0612 9.95153 11.1029 9.92987C11.1669 9.89763 11.1669 9.89763 11.2322 9.86474C11.2771 9.84156 11.322 9.81838 11.3682 9.7945C11.4603 9.747 11.5525 9.69971 11.6448 9.65266C11.8013 9.57278 11.9568 9.49149 12.1123 9.41007C12.494 9.21052 12.8778 9.01425 13.2613 8.81765C13.8945 8.49294 14.5245 8.16356 15.1518 7.82983C15.4861 7.65222 15.8223 7.47817 16.1603 7.30628C16.4686 7.14902 16.7764 6.99113 17.0817 6.82919C17.214 6.75902 17.3466 6.68919 17.4791 6.61936C17.5582 6.57756 17.6373 6.5356 17.7162 6.49353C17.8471 6.42392 17.9783 6.35492 18.1096 6.286C18.1714 6.25285 18.1714 6.25285 18.2345 6.21904C18.2735 6.19873 18.3124 6.17842 18.3525 6.15749C18.3869 6.1393 18.4213 6.12111 18.4568 6.10236C18.5811 6.05506 18.6564 6.04424 18.7901 6.0633Z" fill="#a3a3a3" fill-opacity="1"/>
<path d="M2.1807 9.17065C2.22447 9.17236 2.21354 9.1672 2.27297 9.19137C2.34218 9.21952 2.28943 9.20253 2.31911 9.21209C2.34879 9.22165 2.37847 9.23121 2.40904 9.24106C2.5991 9.31383 2.7763 9.40367 2.95639 9.49435C2.99186 9.512 3.02734 9.52965 3.06389 9.54784C3.16984 9.60091 3.27516 9.65487 3.38027 9.70928C3.41509 9.72703 3.4499 9.74478 3.48577 9.76307C3.5187 9.78052 3.55162 9.79796 3.58555 9.81594C3.61491 9.8313 3.64427 9.84667 3.67452 9.8625C3.7682 9.93001 3.79691 9.98185 3.84165 10.0822C3.85356 10.1951 3.85356 10.1951 3.85416 10.3259C3.85463 10.375 3.8551 10.4241 3.85559 10.4747C3.85568 10.5275 3.85578 10.5804 3.85588 10.6349C3.85675 10.7181 3.85761 10.8013 3.85852 10.8845C3.86062 11.0895 3.86171 11.2945 3.8627 11.4995C3.86329 11.6146 3.86425 11.7297 3.86557 11.8448C3.86678 11.9532 3.86742 12.0615 3.86744 12.1699C3.86836 12.2437 3.86836 12.2437 3.8693 12.319C3.86953 12.3622 3.86977 12.4054 3.87001 12.45C3.90278 12.6678 4.0328 12.7974 4.22131 12.931C4.37467 13.0275 4.53877 13.1055 4.70384 13.1844C4.98614 13.322 5.25923 13.4658 5.52801 13.624C5.64265 13.6877 5.75876 13.7408 5.88034 13.793C6.14834 13.9093 6.39676 14.0419 6.56375 14.2669C6.57336 14.3856 6.57778 14.5002 6.57763 14.619C6.57783 14.6535 6.57803 14.688 6.57823 14.7235C6.5785 14.7964 6.57852 14.8692 6.57832 14.9421C6.57817 15.0537 6.57926 15.1652 6.58043 15.2768C6.58053 15.3476 6.58056 15.4183 6.58052 15.4891C6.58094 15.5225 6.58137 15.5559 6.5818 15.5904C6.57966 15.8228 6.57966 15.8228 6.50172 15.9136C6.42534 15.9656 6.42534 15.9656 6.29349 15.96C6.14571 15.9235 6.03631 15.8771 5.90522 15.8063C5.8599 15.7822 5.81459 15.7581 5.76791 15.7332C5.72032 15.7073 5.67273 15.6815 5.6237 15.6548C5.52425 15.6017 5.42476 15.5486 5.32525 15.4956C5.27678 15.4696 5.22831 15.4437 5.17837 15.4169C4.99773 15.321 4.81518 15.2285 4.63175 15.1369C4.4069 15.0243 4.18497 14.9083 3.96492 14.7883C3.74341 14.6703 3.51797 14.5584 3.29322 14.4454C3.01358 14.3047 2.73563 14.1614 2.45752 14.0183C2.42988 14.0063 2.40223 13.9944 2.37374 13.9821C2.15819 13.8851 2.03681 13.7677 1.95001 13.5625C1.9249 13.4185 1.92569 13.2771 1.9276 13.1315C1.92742 13.0892 1.92725 13.0469 1.92707 13.0032C1.92673 12.864 1.92771 12.7247 1.92875 12.5854C1.92886 12.4885 1.9289 12.3916 1.92887 12.2947C1.92902 12.0919 1.92978 11.8892 1.93102 11.6865C1.93259 11.4262 1.93294 11.1659 1.93287 10.9055C1.9329 10.7056 1.9334 10.5057 1.93407 10.3058C1.93437 10.2097 1.93455 10.1137 1.93462 10.0177C1.93482 9.88385 1.93562 9.75006 1.93661 9.61625C1.93657 9.57632 1.93653 9.5364 1.93648 9.49526C1.93688 9.45896 1.93727 9.42266 1.93767 9.38526C1.93783 9.35363 1.93798 9.322 1.93814 9.28942C1.96083 9.14164 2.02522 9.17624 2.1807 9.17065Z" fill="#F0F0F2"/>
<path d="M9.56253 2.04436C9.72916 2.1103 9.88608 2.18858 10.0441 2.26965C10.0891 2.29222 10.1341 2.31479 10.1805 2.33805C10.4973 2.49785 10.8098 2.66385 11.12 2.83368C11.2937 2.92744 11.4705 3.01443 11.649 3.10056C11.9096 3.22764 12.1661 3.3615 12.4231 3.4945C12.4584 3.51276 12.4936 3.53102 12.53 3.54983C13.73 4.17099 13.73 4.17099 13.8072 4.24028C13.8209 4.33898 13.8209 4.33898 13.8072 4.44745C13.7353 4.51213 13.7353 4.51213 13.6333 4.56705C13.5953 4.5879 13.5573 4.60875 13.5182 4.63023C13.4765 4.65195 13.4349 4.67367 13.3919 4.69604C13.3493 4.71899 13.3066 4.74193 13.2627 4.76557C13.1268 4.83784 12.99 4.90824 12.8527 4.9783C12.8063 5.00252 12.7599 5.02674 12.712 5.0517C12.6669 5.07474 12.6218 5.09779 12.5753 5.12153C12.535 5.1423 12.4946 5.16307 12.453 5.18446C12.2901 5.25138 12.1327 5.29656 11.9568 5.25085C11.9093 5.22746 11.9093 5.22746 11.8608 5.20359C11.8211 5.18431 11.7814 5.16503 11.7405 5.14516C11.6917 5.12001 11.6429 5.09485 11.5926 5.06893C11.5618 5.05308 11.531 5.03722 11.4993 5.02089C11.3155 4.92602 11.1322 4.83037 10.9492 4.7344C10.6871 4.59747 10.4222 4.46531 10.1566 4.33396C10.1243 4.318 10.0921 4.30204 10.0589 4.2856C10.0284 4.27075 9.998 4.2559 9.96664 4.24061C9.88549 4.19885 9.88549 4.19885 9.77267 4.12505C9.59321 4.04816 9.43464 4.04629 9.23957 4.07455C9.09496 4.12295 8.96745 4.18908 8.83587 4.261C8.79965 4.27994 8.76342 4.29887 8.7261 4.31838C8.61979 4.37431 8.51432 4.43132 8.4091 4.48888C8.33175 4.5311 8.33175 4.5311 8.25284 4.57417C8.15858 4.6263 8.06439 4.67853 7.97025 4.73084C7.94525 4.74472 7.92025 4.7586 7.89449 4.7729C7.83129 4.8081 7.76822 4.84347 7.70521 4.87895C7.59051 4.94312 7.47507 5.00609 7.35947 5.06893C7.32346 5.08939 7.28746 5.10984 7.25036 5.13091C7.00432 5.263 6.80434 5.32327 6.51746 5.2761C6.36157 5.21816 6.36157 5.21816 6.21469 5.13626C6.17479 5.11447 6.17479 5.11447 6.13409 5.09223C6.046 5.04381 5.95881 4.99423 5.87154 4.94464C5.80358 4.90697 5.73558 4.86937 5.66753 4.83183C5.1494 4.54473 5.1494 4.54473 5.0872 4.48888C5.07315 4.39096 5.07315 4.39096 5.0872 4.28172C5.36049 4.01841 5.81095 3.85739 6.16098 3.68547C6.58563 3.47627 7.00055 3.25152 7.41509 3.02666C7.76505 2.8369 8.11881 2.65364 8.47447 2.47262C8.51315 2.45291 8.55182 2.43319 8.59166 2.41288C8.62994 2.39347 8.66822 2.37407 8.70766 2.35407C8.78834 2.31181 8.86795 2.26786 8.94659 2.22261C9.34019 1.99721 9.34019 1.99721 9.56253 2.04436Z" fill="#F1F1F3"/>
<path d="M16.8985 9.08776C17.01 9.18788 17.0026 9.21187 17.004 9.3488C17.0046 9.38621 17.0052 9.42361 17.0058 9.46215C17.006 9.5033 17.0062 9.54446 17.0064 9.58686C17.0069 9.63011 17.0074 9.67337 17.008 9.71794C17.0096 9.86157 17.0104 10.0052 17.0111 10.1488C17.0116 10.2223 17.0116 10.2223 17.0121 10.2973C17.0138 10.5565 17.0148 10.8158 17.0155 11.075C17.0162 11.343 17.0189 11.611 17.0221 11.8789C17.0241 12.0848 17.0248 12.2907 17.025 12.4965C17.0254 12.5953 17.0263 12.6941 17.0277 12.7929C17.0296 12.9312 17.0295 13.0694 17.0289 13.2077C17.0304 13.2689 17.0304 13.2689 17.032 13.3314C17.0278 13.6035 17.0278 13.6035 16.9199 13.7254C16.839 13.7887 16.7584 13.8424 16.6678 13.8939C16.6337 13.9147 16.5997 13.9354 16.5646 13.9568C16.5351 13.9717 16.5057 13.9865 16.4753 14.0019C16.4243 14.028 16.4243 14.028 16.3723 14.0547C16.3366 14.0726 16.3009 14.0904 16.2641 14.1089C16.1861 14.1487 16.1081 14.1885 16.0302 14.2283C15.9905 14.2484 15.9509 14.2685 15.9101 14.2892C15.7217 14.3851 15.5344 14.4826 15.3471 14.5802C15.3109 14.599 15.2747 14.6178 15.2374 14.6372C14.777 14.8767 14.3178 15.1179 13.8622 15.3645C13.7493 15.4256 13.6362 15.4864 13.523 15.5471C13.465 15.5783 13.4071 15.6096 13.3492 15.641C13.2619 15.6884 13.1742 15.7351 13.0864 15.7817C13.0354 15.8091 12.9843 15.8365 12.9318 15.8647C12.7912 15.9246 12.7143 15.9451 12.5616 15.9241C12.4223 15.799 12.4534 15.6564 12.4522 15.4884C12.4518 15.4533 12.4513 15.4181 12.4509 15.3819C12.4502 15.3074 12.4498 15.2328 12.4497 15.1583C12.4491 15.0447 12.4469 14.9312 12.4445 14.8176C12.4441 14.7451 12.4437 14.6727 12.4435 14.6002C12.4426 14.5664 12.4417 14.5326 12.4408 14.4978C12.4423 14.328 12.4561 14.2182 12.5768 14.0836C12.7133 13.9653 12.8558 13.8784 13.0201 13.7955C13.0504 13.7797 13.0808 13.7639 13.1121 13.7475C13.2051 13.6992 13.2985 13.6515 13.392 13.6039C13.4458 13.5763 13.4996 13.5486 13.5533 13.5209C13.9812 13.301 13.9812 13.301 14.1388 13.2217C14.2448 13.1683 14.3505 13.1142 14.4561 13.0601C14.4891 13.0437 14.522 13.0273 14.556 13.0104C14.8079 12.8802 15.0039 12.7418 15.0991 12.4852C15.1031 12.4061 15.1044 12.3268 15.1042 12.2475C15.1042 12.1987 15.1043 12.1499 15.1043 12.0996C15.1042 12.0467 15.1041 11.9939 15.104 11.9395C15.1046 11.8279 15.1053 11.7164 15.1061 11.6048C15.1072 11.4287 15.1079 11.2526 15.1072 11.0764C15.1068 10.9617 15.1071 10.8469 15.1082 10.7321C15.1092 10.6241 15.1092 10.516 15.1081 10.408C15.1122 10.1346 15.1258 9.95669 15.3496 9.76056C15.4604 9.68213 15.5722 9.6227 15.6989 9.56683C15.7508 9.54333 15.8026 9.51983 15.8561 9.49562C15.8831 9.48344 15.9101 9.47126 15.9379 9.45872C16.0259 9.41734 16.1111 9.373 16.1963 9.3273C16.225 9.31199 16.2537 9.29669 16.2832 9.28092C16.364 9.2375 16.4445 9.19379 16.5251 9.15008C16.6676 9.08785 16.7432 9.06591 16.8985 9.08776Z" fill="#F2F2F4"/>
</svg>
